<svg xmlns="http://www.w3.org/2000/svg" width="256" height="256" viewBox="0 0 64 64" fill="none">
  <rect x="2" y="2" width="60" height="60" rx="14" fill="#22C55E"/>
  <!-- Sprout icon (white stroke) -->
  <path d="M32 46V34" stroke="#FFFFFF" stroke-width="4" stroke-linecap="round"/>
  <path d="M32 34c0-4 2.5-7 6.5-8 3.7-1 7.5 0 10.5 2.5-2.5 3-5.8 5.5-9.5 6.5-2.6.7-5 .7-7.5-1z" stroke="#FFFFFF" stroke-width="4" stroke-linecap="round" stroke-linejoin="round" fill="none"/>
  <path d="M32 34c0-4-2.5-7-6.5-8-3.7-1-7.5 0-10.5 2.5 2.5 3 5.8 5.5 9.5 6.5 2.6.7 5 .7 7.5-1z" stroke="#FFFFFF" stroke-width="4" stroke-linecap="round" stroke-linejoin="round" fill="none"/>
  <circle cx="32" cy="46" r="2" fill="#FFFFFF"/>
</svg>
